<?xml version="1.0" encoding="utf-8"?>
<!-- Generator: Adobe Illustrator 16.0.3, SVG Export Plug-In . SVG Version: 6.00 Build 0)  -->
<!DOCTYPE svg PUBLIC "-//W3C//DTD SVG 1.0//EN" "http://www.w3.org/TR/2001/REC-SVG-20010904/DTD/svg10.dtd">
<svg version="1.0" id="Warstwa_1" xmlns="http://www.w3.org/2000/svg" xmlns:xlink="http://www.w3.org/1999/xlink" x="0px" y="0px"
	 width="384px" height="512px" viewBox="0 0 384 512" enable-background="new 0 0 384 512" xml:space="preserve">
<g>
	<rect x="28.446" fill="none" width="327.109" height="512"/>
	<rect x="120.86" y="28.444" fill="#1F9C48" width="120.917" height="113.777"/>
	<rect x="92.445" y="255.998" fill="#154DA1" width="199.139" height="113.778"/>
	<rect x="56.89" y="142.221" fill="#ED1C24" width="156.443" height="113.777"/>
	<rect x="56.89" y="369.749" fill="#FEE003" width="270.198" height="113.763"/>
	<g>
		<path fill="#154DA1" d="M164.747,56.872c0.925,0.463,1.459,1.209,1.602,2.171l8.362,51.917c0,1.708-0.676,2.668-1.992,2.847
			h-3.702c-1.245-0.534-1.743-1.886-1.85-4.127c-0.07-3.097-0.854-4.698-2.384-4.84l-3.558,0.035c-1.566,0-2.349,1.495-2.669,4.341
			l-0.356,3.025c-0.249,1.032-0.889,1.566-1.921,1.566h-3.879c-1.067-0.534-1.601-1.388-1.601-2.563l8.114-52.094
			c0.178-1.032,0.64-1.814,1.423-2.277H164.747z M160.334,92.456l-0.427,2.776c-0.106,1.85,0.214,2.811,0.961,2.882h3.451
			c0.818,0,1.281-0.925,1.032-2.918l-0.89-7.151c-0.177-1.424-0.676-2.172-1.494-2.277c-1.067,0.035-1.708,0.747-1.922,2.17
			L160.334,92.456z"/>
		<path fill="#154DA1" d="M193.531,56.908c1.104,0,1.637,0.748,1.637,2.277v13.237c0,1.032,0.32,1.032,0.997,0l7.152-14.055
			c0.462-0.961,0.889-1.459,1.565-1.459h5.551c1.388,0,1.814,0.604,1.211,1.814l-8.969,17.97c-0.427,0.854-0.462,1.815-0.105,2.917
			l10.354,32.168c0.106,0.391,0.177,0.711,0.177,0.925c0,0.748-0.498,1.104-1.457,1.104h-4.199c-0.926,0-1.639-0.748-2.101-2.207
			l-6.547-20.994c-0.392-1.21-0.962-1.815-1.708-1.815h-0.711c-0.82,0-1.211,0.392-1.211,1.21v22.453
			c0.143,0.89-0.32,1.352-1.424,1.352h-3.842c-1.032,0-1.566-0.569-1.566-1.673V58.971c0-1.388,0.534-2.063,1.637-2.063H193.531z"/>
	</g>
	<g>
		<path fill="#FEE003" d="M107.046,182.2c-1.187,0-1.763-0.431-1.763-1.259c0-2.123-1.799-3.167-5.397-3.167
			c-3.634,0-5.469,1.475-5.469,4.425v33.392c0,3.31,1.835,4.966,5.469,4.966c3.563,0,5.362-1.26,5.362-3.742
			c0-0.828,0.646-1.224,1.979-1.224h2.555c1.476,0,2.231,0.396,2.231,1.151c0,7.484-4.03,11.227-12.126,11.227
			c-8.347,0-12.521-4.138-12.521-12.378V182.2c0-7.879,4.138-11.837,12.521-11.837c8.168,0,12.162,3.562,12.162,10.579
			c0,0.828-0.647,1.259-1.978,1.259H107.046z"/>
		<path fill="#FEE003" d="M146.32,170.65c0.676,0,1.033,0.427,1.033,1.316v45.797c0,6.547-3.843,9.821-11.387,9.821h-0.427
			c-8.042,0-12.135-3.665-12.241-10.959c0-1.317,0.854-1.993,2.563-1.993h2.313c1.53,0,2.313,0.676,2.313,1.993
			c0.036,2.704,1.851,4.021,5.374,3.984c3.238-0.035,4.874-1.601,4.874-4.697v-43.946c0-0.889,0.321-1.316,0.997-1.316H146.32z"/>
		<path fill="#FEE003" d="M174.34,170.65c0.925,0.462,1.459,1.209,1.601,2.17l8.362,51.917c0,1.708-0.676,2.668-1.992,2.847h-3.701
			c-1.246-0.534-1.743-1.886-1.85-4.127c-0.072-3.097-0.854-4.698-2.384-4.84l-3.558,0.035c-1.566,0-2.349,1.495-2.668,4.341
			l-0.356,3.025c-0.249,1.032-0.889,1.566-1.921,1.566h-3.879c-1.067-0.534-1.601-1.388-1.601-2.563l8.114-52.094
			c0.177-1.032,0.64-1.815,1.423-2.277H174.34z M169.927,206.233l-0.427,2.776c-0.107,1.85,0.213,2.811,0.961,2.882h3.451
			c0.818,0,1.281-0.925,1.032-2.918l-0.89-7.151c-0.177-1.424-0.676-2.172-1.495-2.277c-1.067,0.035-1.708,0.747-1.921,2.17
			L169.927,206.233z"/>
	</g>
	<g>
		<g>
			<path fill="#FFFFFF" d="M137.508,284.455c7.028,0,10.561,3.176,10.561,9.562v37.354c0,6.707-3.533,10.059-10.561,10.059h-10.845
				c-1.427,0-2.141-1.105-2.141-3.281v-50.732c0-1.891,0.465-2.961,1.428-2.961H137.508z M131.158,331.653
				c0,1.607,0.678,2.427,1.998,2.427h4.352c2.748,0,4.138-1.639,4.138-4.924V296.8c0-3.426-1.391-5.14-4.138-5.14h-4.067
				c-1.534,0-2.283,1-2.283,3.034V331.653z"/>
			<path fill="#FFFFFF" d="M184.214,284.475c1.607,0,2.429,0.753,2.429,2.285v1.93c0,1.858-0.786,2.787-2.357,2.787h-13.783
				c-0.857,0-1.286,0.498-1.286,1.536l0.036,13.425c0,1.07,0.713,1.607,2.106,1.607h6.713c1.25,0,1.856,0.819,1.856,2.427v2.571
				c0,1.32-0.713,1.999-1.856,1.999h-7.142c-1.143,0-1.714,0.748-1.714,2.285v15.103c0,1.18,0.464,1.752,1.429,1.752h13.604
				c1.572,0.177,2.25,1,2.25,2.392v2.32c0,1.606-0.786,2.43-2.322,2.43h-19.316c-1.679,0-2.5-0.788-2.5-2.395v-52.596
				c0-1.251,0.536-1.858,1.571-1.858H184.214z"/>
			<path fill="#FFFFFF" d="M203.436,284.463c0.995,0,1.636,0.463,1.921,1.388l4.306,13.951c0.07,0.463,0.391,0.675,0.996,0.675
				h0.604c0.356,0,0.605-0.212,0.747-0.675l4.342-13.951c0.285-0.925,0.818-1.388,1.602-1.388h2.811c1.246,0,1.885,0.71,1.885,2.172
				l0.037,52.808c0,1.277-0.711,1.92-2.135,1.92h-2.277c-1.317,0-1.992-0.643-1.992-1.92v-24.2c0-0.926-0.393-1.388-1.211-1.388
				c-0.748,0-1.602,1.388-2.205,4.378c-0.677,3.026-1.033,4.59-1.459,4.59h-0.891c-0.463,0-1.031-1.528-1.707-4.555
				c-0.642-2.846-1.389-4.269-2.277-4.269c-0.783,0-1.175,0.428-1.175,1.243l0.036,24.2c0,1.277-0.891,1.92-2.705,1.92h-1.709
				c-1.422,0-2.135-0.643-2.135-1.92v-52.808c0-1.462,0.713-2.172,2.135-2.172H203.436z"/>
			<path fill="#FFFFFF" d="M261.156,294.361v33.389c0,9.285-3.957,13.927-11.84,13.927c-8.166,0-12.232-4.461-12.232-13.387v-33.929
				c0-6.801,4.066-10.22,12.232-10.22C257.199,284.142,261.156,287.561,261.156,294.361z M243.668,329.263
				c0.037,3.813,1.908,5.719,5.578,5.719c3.635,0,5.467-1.905,5.467-5.719v-32.996c0-3.779-1.797-5.648-5.396-5.648
				c-4.064,0-6.115,1.869-6.08,5.648L243.668,329.263z"/>
		</g>
	</g>
	<g>
		<g>
			<path fill="#010101" d="M94.104,398.202c1.103,0,1.637,0.749,1.637,2.277v13.237c0,1.031,0.32,1.031,0.997,0l7.152-14.056
				c0.462-0.961,0.889-1.459,1.565-1.459h5.551c1.388,0,1.815,0.604,1.21,1.815l-8.967,17.968c-0.427,0.854-0.463,1.814-0.107,2.92
				l10.355,32.166c0.106,0.392,0.177,0.713,0.177,0.929c0,0.744-0.498,1.102-1.458,1.102h-4.199c-0.925,0-1.637-0.749-2.1-2.207
				L99.37,431.9c-0.392-1.211-0.961-1.814-1.708-1.814h-0.711c-0.819,0-1.21,0.392-1.21,1.211v22.452
				c0.142,0.89-0.321,1.353-1.424,1.353h-3.842c-1.032,0-1.566-0.568-1.566-1.674v-53.159c0-1.388,0.534-2.066,1.636-2.066H94.104z"
				/>
			<path fill="#010101" d="M136.89,398.124c8.455,0,12.7,3.532,12.7,10.56v10.701c0,3.889-2.247,6.672-6.707,8.313
				c-0.179,0.106-0.179,0.502,0,1.216l6.707,23.616c0.071,0.286,0.107,0.533,0.107,0.783c0,1.177-0.75,1.784-2.248,1.784h-1.962
				c-1.356,0-2.213-0.854-2.604-2.567l-5.28-22.3c-0.285-1.246-0.75-1.925-1.605-2.175h-1.926c-1.428,0-2.142,0.929-2.142,2.782
				v21.692c0,1.713-0.785,2.567-2.318,2.567h-1.855c-1.535,0-2.283-0.854-2.283-2.567v-51.979c0-1.607,0.606-2.427,1.819-2.427
				H136.89z M131.93,419.494c0,2.176,0.678,3.246,1.998,3.246h4.424c2.319,0,3.853-1.176,4.531-3.532v-10.524
				c0-2.854-2.07-4.39-5.387-4.39h-2.426c-2.105,0-3.14,0.753-3.14,2.285V419.494z"/>
			<path fill="#010101" d="M176.598,398.167c0.925,0.463,1.459,1.212,1.601,2.172l8.362,51.917c0,1.705-0.676,2.669-1.992,2.846
				h-3.701c-1.246-0.533-1.743-1.886-1.85-4.128c-0.072-3.097-0.854-4.695-2.384-4.841l-3.558,0.035
				c-1.566,0-2.349,1.498-2.668,4.344l-0.356,3.021c-0.249,1.035-0.889,1.568-1.921,1.568h-3.879
				c-1.067-0.533-1.601-1.388-1.601-2.563l8.114-52.094c0.177-1.03,0.64-1.814,1.423-2.277H176.598z M172.185,433.751l-0.427,2.774
				c-0.107,1.851,0.213,2.811,0.961,2.881h3.451c0.818,0,1.281-0.925,1.032-2.916l-0.89-7.153c-0.177-1.423-0.676-2.168-1.495-2.277
				c-1.067,0.035-1.708,0.749-1.921,2.172L172.185,433.751z"/>
			<path fill="#010101" d="M220.281,409.719c-1.186,0-1.762-0.436-1.762-1.262c0-2.121-1.8-3.168-5.398-3.168
				c-3.633,0-5.469,1.479-5.469,4.43v33.389c0,3.312,1.836,4.966,5.469,4.966c3.563,0,5.363-1.258,5.363-3.743
				c0-0.827,0.646-1.223,1.979-1.223h2.555c1.475,0,2.23,0.396,2.23,1.152c0,7.482-4.03,11.226-12.127,11.226
				c-8.347,0-12.521-4.14-12.521-12.378v-33.389c0-7.883,4.139-11.838,12.521-11.838c8.169,0,12.162,3.56,12.162,10.576
				c0,0.826-0.648,1.262-1.979,1.262H220.281z"/>
			<path fill="#010101" d="M259.426,398.128c0.678,0,1.037,0.432,1.037,1.321v45.955c0,6.569-3.857,9.854-11.428,9.854h-0.428
				c-8.07,0-12.176-3.677-12.283-10.994c0-1.321,0.857-2.003,2.57-2.003h2.322c1.533,0,2.32,0.682,2.32,2.003
				c0.035,2.712,1.857,4.033,5.391,3.998c3.25-0.035,4.893-1.607,4.893-4.716v-44.097c0-0.89,0.32-1.321,1-1.321H259.426z"/>
			<path fill="#010101" d="M287.99,398.167c0.926,0.463,1.461,1.212,1.602,2.172l8.361,51.917c0,1.705-0.676,2.669-1.992,2.846
				h-3.701c-1.246-0.533-1.744-1.886-1.85-4.128c-0.072-3.097-0.854-4.695-2.385-4.841l-3.557,0.035c-1.568,0-2.35,1.498-2.67,4.344
				l-0.357,3.021c-0.248,1.035-0.889,1.568-1.92,1.568h-3.881c-1.066-0.533-1.6-1.388-1.6-2.563l8.115-52.094
				c0.176-1.03,0.639-1.814,1.422-2.277H287.99z M283.578,433.751l-0.428,2.774c-0.107,1.851,0.213,2.811,0.961,2.881h3.451
				c0.818,0,1.279-0.925,1.033-2.916l-0.891-7.153c-0.178-1.423-0.678-2.168-1.494-2.277c-1.068,0.035-1.707,0.749-1.924,2.172
				L283.578,433.751z"/>
		</g>
	</g>
</g>
</svg>
