<?xml version="1.0" encoding="utf-8"?>
<!-- Generator: Adobe Illustrator 16.0.0, SVG Export Plug-In . SVG Version: 6.00 Build 0)  -->
<!DOCTYPE svg PUBLIC "-//W3C//DTD SVG 1.1//EN" "http://www.w3.org/Graphics/SVG/1.1/DTD/svg11.dtd">
<svg version="1.1"
	 id="Layer_1" xmlns:rdf="http://www.w3.org/1999/02/22-rdf-syntax-ns#" xmlns:cc="http://creativecommons.org/ns#" xmlns:dc="http://purl.org/dc/elements/1.1/"
	 xmlns="http://www.w3.org/2000/svg" xmlns:xlink="http://www.w3.org/1999/xlink" x="0px" y="0px" width="30px" height="30px"
	 viewBox="135 107.095 30 30" enable-background="new 135 107.095 30 30" xml:space="preserve">
<path d="M144.444,134.448c11.309,0,17.492-9.368,17.492-17.493c0-0.266-0.004-0.531-0.017-0.794c1.2-0.868,2.244-1.951,3.067-3.184
	c-1.102,0.49-2.287,0.819-3.531,0.968c1.27-0.761,2.243-1.965,2.703-3.4c-1.188,0.704-2.503,1.216-3.903,1.492
	c-1.122-1.195-2.72-1.942-4.487-1.942c-3.396,0-6.149,2.753-6.149,6.147c0,0.483,0.054,0.952,0.16,1.402
	c-5.11-0.257-9.642-2.703-12.673-6.423c-0.528,0.909-0.833,1.964-0.833,3.09c0,2.133,1.085,4.016,2.736,5.117
	c-1.009-0.031-1.957-0.308-2.785-0.769c0,0.026,0,0.051,0,0.079c0,2.977,2.119,5.463,4.932,6.026
	c-0.517,0.142-1.06,0.216-1.621,0.216c-0.396,0-0.781-0.037-1.156-0.109c0.783,2.442,3.052,4.22,5.744,4.271
	c-2.104,1.648-4.755,2.631-7.636,2.631c-0.496,0-0.985-0.028-1.466-0.085C137.742,133.431,140.973,134.448,144.444,134.448"/>
</svg>
